# xmcd
#
# Track frame offsets:
#	150
#	10041
#	17857
#	23732
#	31654
#	39199
#	60151
#	79129
#	85527
#	98434
#	103306
#	118243
#	122161
#	127352
#	133813
#	136399
#	137987
#	141910
#	144843
#	152765
#	164320
#	167454
#	175452
#	187881
#	194152
#	206922
#	216095
#	223366
#	235366
#	239481
#	245354
#	251206
#	257614
#	268361
#	273912
#	278016
#	281705
#	285131
#	292207
#	295196
#	299105
#	317246
#
# Disc length: 4361 seconds
#
# Revision: 0
# Processed by: cddbd v1.5.1PL0 Copyright (c) Steve Scherf et al.
# Submitted via: dBpowerAMP V4.0
#
DISCID=9711072a
DTITLE=Various Artist - Field Recordings Volume 8: Lousisiana, Alabama, Mississippi (1934-1947)
DYEAR=1900
DGENRE=Blues
TTITLE0=Wilbur Shaw (Wilfred Charles - Oh Dago
TTITLE1=Oakdale Carriere - Catin Prie Donc Pour Ton Negre
TTITLE2=Jimmy Peters - Rockaway
TTITLE3=Jimmy Peters - S'En Aller Chez Moreau (English-French Ring Aong)
TTITLE4=Jimmy Peters - Je Veux Me Marier (Afro-French Ring Song)
TTITLE5=Joseph Jones - Blues De La Prison (French Negro Blues)
TTITLE6=Cleveland Benoit and Darby Hicks - La-Bas Chez Moreau
TTITLE7=Paul Junius Malveax and Ernest Lafitte - Bonsoir Timon (Bye-Bye, Bonsoir Mes Parents)
TTITLE8=Paul Junius Malveax and Ernest Lafitte - Ta, Papa (Tous Les Samdis)
TTITLE9=Vera Hall - Come Up Horsey, Hey, Hey
TTITLE10=Elinor Boyer - You're Gonna Need My Help Someday
TTITLE11=Josephine Parker - How'm I Doing It Hey, Hey
TTITLE12=Josephine PArker I Got A Man In New Orleans
TTITLE13=Mississippi School Children - Today Is Monday (Everybody Happy)
TTITLE14=Three Children - I'm Runnin' Over The River
TTITLE15=Four Girls Aged About 16 - O John The Rabbit (Old John The Rabbit)
TTITLE16=Four Girls Aged About 16 - Rabbit
TTITLE17=Susie Miller - Mister Rabbit
TTITLE18=Five Women - Penitentiary Blues (Rickentiest Superintendant)
TTITLE19=Mary James - Go 'Way Devil LEave Me Alone
TTITLE20=Mary James - Rabbit On A Log
TTITLE21=Mary James - Make The Devil Leave Me Alone
TTITLE22=Group Of Women Prisoners - If There's Anybody Here Wants To Buy Some Cabbage
TTITLE23=Lucille Walker - Shake 'Em On Down
TTITLE24=Beatrice Tisdall - Penitentiary Blues (Part 1 and 2)
TTITLE25=Beartice Tisdall - Workhouse Blues
TTITLE26=Mattie May Thomas - Dangerous Blues
TTITLE27=Mattie May Thomas - Big Mac From Macamere
TTITLE28=Mattie May Thomas - No Mo' Freedom
TTITLE29=Eva White - No Mo' Freedom
TTITLE30=Beatrice Perry - I Got A Man On The Wheeler (Levee Camp Blues)
TTITLE31=3 Girl Prisoners - Where HAve You Been John Billy?
TTITLE32=Betty May Bowman - The Last Month Of The Year
TTITLE33=Elizabeth Moore - Old Apple Tree In The Ground
TTITLE34=Josephine Douglas - Noah Built The Ark
TTITLE35=Hattie Goff - Railroad Man
TTITLE36=Hattie Goff - Oh Mr. Dooley, Don't 'Rest Me
TTITLE37=Annabelle Abraham - To Be Sho' (Hey Logan)
TTITLE38=Edna Taylor - Susie Gal
TTITLE39=Group Of School Children - Chariot Jubilee
TTITLE40=Bob And Leyroy - Sometimes I Wonder
TTITLE41=Bob And Leyroy - Bye Bye Baby
EXTD=
EXTT0=
EXTT1=
EXTT2=
EXTT3=
EXTT4=
EXTT5=
EXTT6=
EXTT7=
EXTT8=
EXTT9=
EXTT10=
EXTT11=
EXTT12=
EXTT13=
EXTT14=
EXTT15=
EXTT16=
EXTT17=
EXTT18=
EXTT19=
EXTT20=
EXTT21=
EXTT22=
EXTT23=
EXTT24=
EXTT25=
EXTT26=
EXTT27=
EXTT28=
EXTT29=
EXTT30=
EXTT31=
EXTT32=
EXTT33=
EXTT34=
EXTT35=
EXTT36=
EXTT37=
EXTT38=
EXTT39=
EXTT40=
EXTT41=
PLAYORDER=
